<svg width="15" height="15" viewBox="0 0 15 15" fill="none" xmlns="http://www.w3.org/2000/svg">
<g clip-path="url(#clip0_124_73)">
<path fill-rule="evenodd" clip-rule="evenodd" d="M7.66416 0.00188242C6.57294 -0.0218654 5.48969 0.192847 4.49004 0.631029C3.49038 1.06921 2.59841 1.7203 1.8764 2.53885C1.15438 3.35739 0.619733 4.32366 0.309767 5.3702C-0.000197858 6.41674 -0.0780061 7.51832 0.081775 8.59803C0.241556 9.67775 0.635076 10.7096 1.23486 11.6215C1.83464 12.5334 2.62624 13.3034 3.55438 13.8778C4.48252 14.4521 5.52483 14.8169 6.60855 14.9468C7.69227 15.0767 8.79128 14.9685 9.82885 14.6297C10.0061 14.5718 10.1531 14.4458 10.2375 14.2795C10.3219 14.1131 10.3368 13.9201 10.2788 13.7428C10.2209 13.5655 10.0949 13.4185 9.92861 13.3341C9.76229 13.2498 9.56925 13.2349 9.39197 13.2928C8.26445 13.661 7.05398 13.6921 5.90903 13.3823C4.76408 13.0726 3.73442 12.4354 2.94632 11.549C2.15822 10.6625 1.64596 9.56537 1.47234 8.39203C1.29872 7.2187 1.47131 6.0202 1.96893 4.94351C2.46655 3.86683 3.26757 2.95878 4.27375 2.33072C5.27994 1.70266 6.44754 1.3819 7.63337 1.40777C8.81921 1.43364 9.97171 1.80502 10.9495 2.47637C11.9274 3.14771 12.688 4.08984 13.1382 5.1872C13.209 5.35975 13.3453 5.49714 13.5174 5.56914C13.6026 5.60479 13.6939 5.62331 13.7863 5.62364C13.8786 5.62398 13.9701 5.60613 14.0556 5.5711C14.141 5.53608 14.2187 5.48456 14.2842 5.41951C14.3498 5.35445 14.4019 5.27712 14.4375 5.19194C14.4732 5.10676 14.4917 5.01539 14.492 4.92304C14.4924 4.8307 14.4745 4.7392 14.4395 4.65376C13.8854 3.30309 12.9492 2.14349 11.7457 1.31716C10.5422 0.49084 9.1237 0.0337251 7.66416 0.00188242ZM8.20322 3.51563C8.20322 3.32915 8.12914 3.15031 7.99728 3.01845C7.86542 2.88659 7.68658 2.81251 7.5001 2.81251C7.31362 2.81251 7.13477 2.88659 7.00291 3.01845C6.87105 3.15031 6.79697 3.32915 6.79697 3.51563V7.20938L4.8901 9.11532C4.82101 9.17969 4.76561 9.25732 4.72718 9.34357C4.68875 9.42982 4.66808 9.52292 4.66642 9.61733C4.66475 9.71174 4.68212 9.80552 4.71748 9.89307C4.75285 9.98062 4.80548 10.0602 4.87225 10.1269C4.93902 10.1937 5.01855 10.2463 5.1061 10.2817C5.19365 10.3171 5.28743 10.3344 5.38184 10.3328C5.47624 10.3311 5.56935 10.3104 5.6556 10.272C5.74185 10.2336 5.81948 10.1782 5.88385 10.1091L7.99697 7.99688L8.20322 7.79063V3.51563ZM14.0626 14.0625C14.0626 14.3111 13.9638 14.5496 13.788 14.7254C13.6122 14.9012 13.3737 15 13.1251 15C12.8765 15 12.638 14.9012 12.4622 14.7254C12.2864 14.5496 12.1876 14.3111 12.1876 14.0625C12.1876 13.8139 12.2864 13.5754 12.4622 13.3996C12.638 13.2238 12.8765 13.125 13.1251 13.125C13.3737 13.125 13.6122 13.2238 13.788 13.3996C13.9638 13.5754 14.0626 13.8139 14.0626 14.0625ZM13.8282 8.20313C13.8282 8.01665 13.7541 7.83781 13.6223 7.70595C13.4904 7.57409 13.3116 7.50001 13.1251 7.50001C12.9386 7.50001 12.7598 7.57409 12.6279 7.70595C12.4961 7.83781 12.422 8.01665 12.422 8.20313V11.4844C12.422 11.6709 12.4961 11.8497 12.6279 11.9816C12.7598 12.1134 12.9386 12.1875 13.1251 12.1875C13.3116 12.1875 13.4904 12.1134 13.6223 11.9816C13.7541 11.8497 13.8282 11.6709 13.8282 11.4844V8.20313Z" fill="#B10D0D"/>
</g>
<defs>
<clipPath id="clip0_124_73">
<rect width="15" height="15" fill="white"/>
</clipPath>
</defs>
</svg>
