<svg width="14" height="17" viewBox="0 0 14 17" fill="none" xmlns="http://www.w3.org/2000/svg">
<mask id="mask0_124_64" style="mask-type:luminance" maskUnits="userSpaceOnUse" x="0" y="0" width="14" height="17">
<path d="M7 15C7 15 11.75 11.2 11.75 7.08334C11.75 4.46007 9.62327 2.33334 7 2.33334C4.37673 2.33334 2.25 4.46007 2.25 7.08334C2.25 11.2 7 15 7 15Z" fill="white" stroke="white" stroke-width="4" stroke-linejoin="round"/>
<path d="M6.99961 7.98334C7.1178 7.98334 7.23483 7.96006 7.34402 7.91483C7.45322 7.8696 7.55243 7.8033 7.63601 7.71973C7.71958 7.63616 7.78587 7.53694 7.8311 7.42775C7.87633 7.31856 7.89961 7.20152 7.89961 7.08333C7.89961 6.96514 7.87633 6.84811 7.8311 6.73892C7.78587 6.62973 7.71958 6.53051 7.63601 6.44694C7.55243 6.36337 7.45322 6.29707 7.34402 6.25184C7.23483 6.20661 7.1178 6.18333 6.99961 6.18333C6.76091 6.18333 6.532 6.27816 6.36321 6.44694C6.19443 6.61572 6.09961 6.84464 6.09961 7.08333C6.09961 7.32203 6.19443 7.55095 6.36321 7.71973C6.532 7.88851 6.76091 7.98334 6.99961 7.98334Z" fill="black" stroke="black" stroke-width="3" stroke-linejoin="round"/>
</mask>
<g mask="url(#mask0_124_64)">
<path d="M-2.69995 0.133339H23.7V26.5333H-2.69995V0.133339Z" fill="#4F4F4F"/>
</g>
</svg>
