<svg width="19" height="19" viewBox="0 0 19 19" fill="none" xmlns="http://www.w3.org/2000/svg">
<path d="M8.89822 8.54472C10.7812 8.54472 12.3077 7.01826 12.3077 5.13528C12.3077 3.25229 10.7812 1.72583 8.89822 1.72583C7.01523 1.72583 5.48877 3.25229 5.48877 5.13528C5.48877 7.01826 7.01523 8.54472 8.89822 8.54472Z" fill="#4F4F4F"/>
<path d="M11.0833 14.7778H14.7777V15.5167H11.0833V14.7778Z" fill="#4F4F4F"/>
<path d="M7.91679 15.8333V17.4167C7.91679 17.5566 7.97239 17.6909 8.07137 17.7899C8.17035 17.8888 8.30459 17.9444 8.44457 17.9444H17.4168C17.5568 17.9444 17.691 17.8888 17.79 17.7899C17.889 17.6909 17.9446 17.5566 17.9446 17.4167V12.1389C17.9446 11.9989 17.889 11.8647 17.79 11.7657C17.691 11.6667 17.5568 11.6111 17.4168 11.6111H13.7223V10.8353C13.7223 10.6953 13.6667 10.5611 13.5678 10.4621C13.4688 10.3631 13.3345 10.3075 13.1946 10.3075C13.0546 10.3075 12.9203 10.3631 12.8214 10.4621C12.7224 10.5611 12.6668 10.6953 12.6668 10.8353V11.6111H11.6112V9.72167C10.7144 9.57492 9.80721 9.50079 8.89846 9.5C6.89438 9.49148 4.91276 9.92203 3.0929 10.7614C2.79338 10.9027 2.54069 11.127 2.36482 11.4077C2.18895 11.6883 2.09727 12.0135 2.10068 12.3447V15.8333H7.91679ZM16.889 16.8889H8.97234V12.6667H12.6668V12.8883C12.6668 13.0283 12.7224 13.1626 12.8214 13.2615C12.9203 13.3605 13.0546 13.4161 13.1946 13.4161C13.3345 13.4161 13.4688 13.3605 13.5678 13.2615C13.6667 13.1626 13.7223 13.0283 13.7223 12.8883V12.6667H16.889V16.8889Z" fill="#4F4F4F"/>
</svg>
