<svg width="17" height="17" viewBox="0 0 17 17" fill="none" xmlns="http://www.w3.org/2000/svg">
<path d="M2.83341 14.875C2.44383 14.875 2.11044 14.7364 1.83325 14.4592C1.55605 14.182 1.41722 13.8484 1.41675 13.4583V5.66666C1.41675 5.27708 1.55558 4.94369 1.83325 4.6665C2.11091 4.3893 2.4443 4.25047 2.83341 4.25H5.66675V2.83333C5.66675 2.44375 5.80558 2.11036 6.08325 1.83316C6.36091 1.55597 6.6943 1.41714 7.08341 1.41666H9.91675C10.3063 1.41666 10.64 1.5555 10.9176 1.83316C11.1953 2.11083 11.3339 2.44422 11.3334 2.83333V4.25H14.1667C14.5563 4.25 14.89 4.38883 15.1676 4.6665C15.4453 4.94416 15.5839 5.27755 15.5834 5.66666V13.4583C15.5834 13.8479 15.4448 14.1815 15.1676 14.4592C14.8904 14.7369 14.5568 14.8755 14.1667 14.875H2.83341ZM7.08341 4.25H9.91675V2.83333H7.08341V4.25Z" fill="#4F4F4F"/>
</svg>
