<svg width="26" height="26" viewBox="0 0 26 26" fill="none" xmlns="http://www.w3.org/2000/svg">
<path d="M13 1.625C9.99449 1.66147 7.12235 2.87161 4.99698 4.99698C2.87161 7.12235 1.66147 9.99449 1.625 13C1.66147 16.0055 2.87161 18.8776 4.99698 21.003C7.12235 23.1284 9.99449 24.3385 13 24.375C16.0055 24.3385 18.8776 23.1284 21.003 21.003C23.1284 18.8776 24.3385 16.0055 24.375 13C24.3385 9.99449 23.1284 7.12235 21.003 4.99698C18.8776 2.87161 16.0055 1.66147 13 1.625ZM19.5 13.8125H13.8125V19.5H12.1875V13.8125H6.5V12.1875H12.1875V6.5H13.8125V12.1875H19.5V13.8125Z" fill="#6A6A6A"/>
</svg>
