<svg width="29" height="29" viewBox="0 0 29 29" fill="none" xmlns="http://www.w3.org/2000/svg">
<path d="M14.5 14.5C14.5 14.8605 14.3568 15.2063 14.1018 15.4612C13.8469 15.7162 13.5012 15.8594 13.1406 15.8594H5.4375C5.07697 15.8594 4.73121 15.7162 4.47628 15.4612C4.22134 15.2063 4.07812 14.8605 4.07812 14.5C4.07812 14.1395 4.22134 13.7937 4.47628 13.5388C4.73121 13.2838 5.07697 13.1406 5.4375 13.1406H13.1406C13.5012 13.1406 13.8469 13.2838 14.1018 13.5388C14.3568 13.7937 14.5 14.1395 14.5 14.5ZM5.4375 8.60937H20.3906C20.7512 8.60937 21.0969 8.46616 21.3518 8.21122C21.6068 7.95629 21.75 7.61053 21.75 7.25C21.75 6.88947 21.6068 6.54371 21.3518 6.28878C21.0969 6.03384 20.7512 5.89062 20.3906 5.89062H5.4375C5.07697 5.89062 4.73121 6.03384 4.47628 6.28878C4.22134 6.54371 4.07812 6.88947 4.07812 7.25C4.07812 7.61053 4.22134 7.95629 4.47628 8.21122C4.73121 8.46616 5.07697 8.60937 5.4375 8.60937ZM11.3281 20.3906H5.4375C5.07697 20.3906 4.73121 20.5338 4.47628 20.7888C4.22134 21.0437 4.07812 21.3895 4.07812 21.75C4.07812 22.1105 4.22134 22.4563 4.47628 22.7112C4.73121 22.9662 5.07697 23.1094 5.4375 23.1094H11.3281C11.6887 23.1094 12.0344 22.9662 12.2893 22.7112C12.5443 22.4563 12.6875 22.1105 12.6875 21.75C12.6875 21.3895 12.5443 21.0437 12.2893 20.7888C12.0344 20.5338 11.6887 20.3906 11.3281 20.3906ZM26.3368 18.0695C26.2105 17.9428 26.0604 17.8422 25.8952 17.7736C25.7299 17.705 25.5528 17.6697 25.3739 17.6697C25.195 17.6697 25.0178 17.705 24.8526 17.7736C24.6873 17.8422 24.5373 17.9428 24.411 18.0695L22.2031 20.2773V12.6875C22.2031 12.327 22.0599 11.9812 21.805 11.7263C21.55 11.4713 21.2043 11.3281 20.8437 11.3281C20.4832 11.3281 20.1375 11.4713 19.8825 11.7263C19.6276 11.9812 19.4844 12.327 19.4844 12.6875V20.2773L17.2743 18.0661C17.0189 17.8107 16.6725 17.6673 16.3114 17.6673C15.9502 17.6673 15.6039 17.8107 15.3485 18.0661C15.0931 18.3215 14.9496 18.6678 14.9496 19.029C14.9496 19.3901 15.0931 19.7365 15.3485 19.9919L19.8797 24.5231C20.006 24.6499 20.1561 24.7504 20.3213 24.819C20.4866 24.8876 20.6637 24.9229 20.8426 24.9229C21.0215 24.9229 21.1987 24.8876 21.3639 24.819C21.5292 24.7504 21.6792 24.6499 21.8055 24.5231L26.3368 19.9919C26.5917 19.7369 26.7349 19.3912 26.7349 19.0307C26.7349 18.6702 26.5917 18.3244 26.3368 18.0695Z" fill="#4F4F4F"/>
</svg>
